HIERARCHY
ROOT Hips
{
  OFFSET -539.095 92.4551 880.988
  CHANNELS 6 Xposition Yposition Zposition Zrotation Xrotation Yrotation
  JOINT Spine
  {
    OFFSET 2.58383e-05 8 -1.36046e-05
    CHANNELS 6 Xposition Yposition Zposition Zrotation Xrotation Yrotation
    JOINT Spine1
    {
      OFFSET 2.46709e-05 8 0.00457624
      CHANNELS 6 Xposition Yposition Zposition Zrotation Xrotation Yrotation
      JOINT Spine2
      {
        OFFSET -3.87333e-05 8 -2.06153e-05
        CHANNELS 6 Xposition Yposition Zposition Zrotation Xrotation Yrotation
        JOINT Spine3
        {
          OFFSET 0 8 0
          CHANNELS 6 Xposition Yposition Zposition Zrotation Xrotation Yrotation
          JOINT Neck
          {
            OFFSET -0.000148956 17 -0.000385268
            CHANNELS 6 Xposition Yposition Zposition Zrotation Xrotation Yrotation
            JOINT Head
            {
              OFFSET -4.99495e-05 10.8 -2.38947e-05
              CHANNELS 6 Xposition Yposition Zposition Zrotation Xrotation Yrotation
              End Site
              {
                OFFSET 0 20.25 0
              }
            }
          }
          JOINT LeftShoulder
          {
            OFFSET 4.99984 17.0001 -0.000646075
            CHANNELS 6 Xposition Yposition Zposition Zrotation Xrotation Yrotation
            JOINT LeftShoulder2
            {
              OFFSET 6.45 0 0
              CHANNELS 6 Xposition Yposition Zposition Zrotation Xrotation Yrotation
              JOINT LeftArm
              {
                OFFSET 6.44997 0.00012723 0.000913669
                CHANNELS 6 Xposition Yposition Zposition Zrotation Xrotation Yrotation
                JOINT LeftForeArm
                {
                  OFFSET -3.64329e-05 -32.4 -1.99997
                  CHANNELS 6 Xposition Yposition Zposition Zrotation Xrotation Yrotation
                  JOINT LeftHand
                  {
                    OFFSET 5.68933e-05 -25.6526 2.00002
                    CHANNELS 6 Xposition Yposition Zposition Zrotation Xrotation Yrotation
                    JOINT LeftHandThumb1
                    {
                      OFFSET -0.499972 -1.49994 2.64993
                      CHANNELS 6 Xposition Yposition Zposition Zrotation Xrotation Yrotation
                      JOINT LeftHandThumb2
                      {
                        OFFSET -2.97915e-05 -3.79997 3.69999
                        CHANNELS 6 Xposition Yposition Zposition Zrotation Xrotation Yrotation
                        JOINT LeftHandThumb3
                        {
                          OFFSET -0.000104804 -2.99997 2.70002
                          CHANNELS 6 Xposition Yposition Zposition Zrotation Xrotation Yrotation
                          End Site
                          {
                            OFFSET 3.80354e-05 -2.29998 1.79998
                          }
                        }
                      }
                    }
                    JOINT LeftHandIndex
                    {
                      OFFSET -2.23552e-05 -1.90005 1.60005
                      CHANNELS 6 Xposition Yposition Zposition Zrotation Xrotation Yrotation
                      JOINT LeftHandIndex1
                      {
                        OFFSET 0 -8.30001 1.89997
                        CHANNELS 6 Xposition Yposition Zposition Zrotation Xrotation Yrotation
                        JOINT LeftHandIndex2
                        {
                          OFFSET -3.15743e-05 -4.49998 -6.31151e-05
                          CHANNELS 6 Xposition Yposition Zposition Zrotation Xrotation Yrotation
                          JOINT LeftHandIndex3
                          {
                            OFFSET 6.886e-05 -3.39996 2.10315e-05
                            CHANNELS 6 Xposition Yposition Zposition Zrotation Xrotation Yrotation
                            End Site
                            {
                              OFFSET -5.96953e-05 -2.60006 2.97466e-05
                            }
                          }
                        }
                      }
                    }
                    JOINT LeftHandMiddle
                    {
                      OFFSET -0.250003 -2.19997 0.400109
                      CHANNELS 6 Xposition Yposition Zposition Zrotation Xrotation Yrotation
                      JOINT LeftHandMiddle1
                      {
                        OFFSET -5.59385e-05 -8.30007 1.00104
                        CHANNELS 6 Xposition Yposition Zposition Zrotation Xrotation Yrotation
                        JOINT LeftHandMiddle2
                        {
                          OFFSET 2.8294e-05 -4.64999 0
                          CHANNELS 6 Xposition Yposition Zposition Zrotation Xrotation Yrotation
                          JOINT LeftHandMiddle3
                          {
                            OFFSET -2.96855e-05 -3.30004 2.68165e-05
                            CHANNELS 6 Xposition Yposition Zposition Zrotation Xrotation Yrotation
                            End Site
                            {
                              OFFSET 0 -2.69993 -2.001e-05
                            }
                          }
                        }
                      }
                    }
                    JOINT LeftHandRing
                    {
                      OFFSET -0.500016 -2.09205 -0.799994
                      CHANNELS 6 Xposition Yposition Zposition Zrotation Xrotation Yrotation
                      JOINT LeftHandRing1
                      {
                        OFFSET 2.47036e-05 -7.79942 -0.199995
                        CHANNELS 6 Xposition Yposition Zposition Zrotation Xrotation Yrotation
                        JOINT LeftHandRing2
                        {
                          OFFSET -0.00123511 -3.79996 8.18488e-05
                          CHANNELS 6 Xposition Yposition Zposition Zrotation Xrotation Yrotation
                          JOINT LeftHandRing3
                          {
                            OFFSET 1.52226e-05 -3.39994 0
                            CHANNELS 6 Xposition Yposition Zposition Zrotation Xrotation Yrotation
                            End Site
                            {
                              OFFSET 3.9036e-05 -2.60007 0
                            }
                          }
                        }
                      }
                    }
                    JOINT LeftHandPinky
                    {
                      OFFSET -0.749973 -1.74998 -1.84999
                      CHANNELS 6 Xposition Yposition Zposition Zrotation Xrotation Yrotation
                      JOINT LeftHandPinky1
                      {
                        OFFSET 3.84861e-05 -7.15006 -1.00002
                        CHANNELS 6 Xposition Yposition Zposition Zrotation Xrotation Yrotation
                        JOINT LeftHandPinky2
                        {
                          OFFSET 0.006304 -2.99995 -2.86234e-05
                          CHANNELS 6 Xposition Yposition Zposition Zrotation Xrotation Yrotation
                          JOINT LeftHandPinky3
                          {
                            OFFSET -6.11704e-05 -2.35008 2.76782e-05
                            CHANNELS 6 Xposition Yposition Zposition Zrotation Xrotation Yrotation
                            End Site
                            {
                              OFFSET 0 -2.09999 -1.80232e-05
                            }
                          }
                        }
                      }
                    }
                  }
                }
              }
            }
          }
          JOINT RightShoulder
          {
            OFFSET -5.00018 17 -8.11437e-05
            CHANNELS 6 Xposition Yposition Zposition Zrotation Xrotation Yrotation
            JOINT RightShoulder2
            {
              OFFSET -6.45 0 0
              CHANNELS 6 Xposition Yposition Zposition Zrotation Xrotation Yrotation
              JOINT RightArm
              {
                OFFSET -6.45 0.000216467 0.000822313
                CHANNELS 6 Xposition Yposition Zposition Zrotation Xrotation Yrotation
                JOINT RightForeArm
                {
                  OFFSET 0 -32.4 -2.00003
                  CHANNELS 6 Xposition Yposition Zposition Zrotation Xrotation Yrotation
                  JOINT RightHand
                  {
                    OFFSET 0.0081278 -25.6499 2.00005
                    CHANNELS 6 Xposition Yposition Zposition Zrotation Xrotation Yrotation
                    JOINT RightHandThumb1
                    {
                      OFFSET 0.500004 -1.50002 2.65007
                      CHANNELS 6 Xposition Yposition Zposition Zrotation Xrotation Yrotation
                      JOINT RightHandThumb2
                      {
                        OFFSET 0.00800102 -3.80002 3.70007
                        CHANNELS 6 Xposition Yposition Zposition Zrotation Xrotation Yrotation
                        JOINT RightHandThumb3
                        {
                          OFFSET -1.61582e-05 -3 2.69998
                          CHANNELS 6 Xposition Yposition Zposition Zrotation Xrotation Yrotation
                          End Site
                          {
                            OFFSET -5.53395e-05 -2.3 1.8
                          }
                        }
                      }
                    }
                    JOINT RightHandIndex
                    {
                      OFFSET 0 -1.89997 1.60002
                      CHANNELS 6 Xposition Yposition Zposition Zrotation Xrotation Yrotation
                      JOINT RightHandIndex1
                      {
                        OFFSET 3.24559e-05 -8.3 1.90001
                        CHANNELS 6 Xposition Yposition Zposition Zrotation Xrotation Yrotation
                        JOINT RightHandIndex2
                        {
                          OFFSET -2.38054e-05 -4.50002 3.64539e-05
                          CHANNELS 6 Xposition Yposition Zposition Zrotation Xrotation Yrotation
                          JOINT RightHandIndex3
                          {
                            OFFSET -2.2276e-05 -3.4 -7.00846e-05
                            CHANNELS 6 Xposition Yposition Zposition Zrotation Xrotation Yrotation
                            End Site
                            {
                              OFFSET -2.5536e-05 -2.59997 0.000121303
                            }
                          }
                        }
                      }
                    }
                    JOINT RightHandMiddle
                    {
                      OFFSET 0.250076 -2.20001 0.40003
                      CHANNELS 6 Xposition Yposition Zposition Zrotation Xrotation Yrotation
                      JOINT RightHandMiddle1
                      {
                        OFFSET -1.00725e-05 -8.30001 1.00033
                        CHANNELS 6 Xposition Yposition Zposition Zrotation Xrotation Yrotation
                        JOINT RightHandMiddle2
                        {
                          OFFSET 4.02373e-05 -4.64995 -4.55644e-05
                          CHANNELS 6 Xposition Yposition Zposition Zrotation Xrotation Yrotation
                          JOINT RightHandMiddle3
                          {
                            OFFSET -2.48752e-05 -3.29912 1.32108e-05
                            CHANNELS 6 Xposition Yposition Zposition Zrotation Xrotation Yrotation
                            End Site
                            {
                              OFFSET -5.50122e-05 -2.69995 -6.00382e-05
                            }
                          }
                        }
                      }
                    }
                    JOINT RightHandRing
                    {
                      OFFSET 0.499926 -2.14996 -0.800008
                      CHANNELS 6 Xposition Yposition Zposition Zrotation Xrotation Yrotation
                      JOINT RightHandRing1
                      {
                        OFFSET 0 -7.74991 -0.199912
                        CHANNELS 6 Xposition Yposition Zposition Zrotation Xrotation Yrotation
                        JOINT RightHandRing2
                        {
                          OFFSET 0 -3.80003 0
                          CHANNELS 6 Xposition Yposition Zposition Zrotation Xrotation Yrotation
                          JOINT RightHandRing3
                          {
                            OFFSET -2.27291e-05 -3.40004 -5.01129e-05
                            CHANNELS 6 Xposition Yposition Zposition Zrotation Xrotation Yrotation
                            End Site
                            {
                              OFFSET 4.39775e-05 -2.60003 7.40344e-05
                            }
                          }
                        }
                      }
                    }
                    JOINT RightHandPinky
                    {
                      OFFSET 0.749987 -1.74997 -1.85001
                      CHANNELS 6 Xposition Yposition Zposition Zrotation Xrotation Yrotation
                      JOINT RightHandPinky1
                      {
                        OFFSET 6.87795e-05 -7.15002 -0.999976
                        CHANNELS 6 Xposition Yposition Zposition Zrotation Xrotation Yrotation
                        JOINT RightHandPinky2
                        {
                          OFFSET 3.7875e-05 -3.00003 5.88657e-05
                          CHANNELS 6 Xposition Yposition Zposition Zrotation Xrotation Yrotation
                          JOINT RightHandPinky3
                          {
                            OFFSET -5.31248e-05 -2.34999 -6.62954e-05
                            CHANNELS 6 Xposition Yposition Zposition Zrotation Xrotation Yrotation
                            End Site
                            {
                              OFFSET 4.53998e-05 -2.10067 0.00184821
                            }
                          }
                        }
                      }
                    }
                  }
                }
              }
            }
          }
        }
      }
    }
  }
  JOINT LeftUpLeg
  {
    OFFSET 7.99999 0 2.73347e-05
    CHANNELS 6 Xposition Yposition Zposition Zrotation Xrotation Yrotation
    JOINT LeftLeg
    {
      OFFSET -2.79401e-05 -45 -1.00006
      CHANNELS 6 Xposition Yposition Zposition Zrotation Xrotation Yrotation
      JOINT LeftFoot
      {
        OFFSET -5.57342e-05 -41 -1.99999
        CHANNELS 6 Xposition Yposition Zposition Zrotation Xrotation Yrotation
        JOINT LeftToeBase
        {
          OFFSET -4.24437e-05 -7.5 12.5
          CHANNELS 6 Xposition Yposition Zposition Zrotation Xrotation Yrotation
          JOINT LeftFootToe
          {
            OFFSET 0 0 4
            CHANNELS 6 Xposition Yposition Zposition Zrotation Xrotation Yrotation
            End Site
            {
              OFFSET 0 0 0
            }
          }
        }
      }
    }
  }
  JOINT RightUpLeg
  {
    OFFSET -7.99999 0 -2.73347e-05
    CHANNELS 6 Xposition Yposition Zposition Zrotation Xrotation Yrotation
    JOINT RightLeg
    {
      OFFSET -3.90782e-05 -45 -1.00006
      CHANNELS 6 Xposition Yposition Zposition Zrotation Xrotation Yrotation
      JOINT RightFoot
      {
        OFFSET -8.56936e-05 -41 -1.99987
        CHANNELS 6 Xposition Yposition Zposition Zrotation Xrotation Yrotation
        JOINT RightToeBase
        {
          OFFSET 3.30672e-05 -7.5 12.5
          CHANNELS 6 Xposition Yposition Zposition Zrotation Xrotation Yrotation
          JOINT RightFootToe
          {
            OFFSET 0 0 4
            CHANNELS 6 Xposition Yposition Zposition Zrotation Xrotation Yrotation
            End Site
            {
              OFFSET 0 0 0
            }
          }
        }
      }
    }
  }
}
MOTION
Frames:	3
Frame Time:	0.0111111
-526.945 91.7839 866.916 -1.20897 -2.13766 -124.121 0 8 -5.68434e-14 -3.55682 8.24894 1.72725 1.13687e-13 8 5.68434e-14 0.292119 1.65151 0.0136461 0 8 -5.68434e-14 0.146119 0.825791 0.00786671 0 8 -5.68434e-14 0.146934 0.829186 0.012182 0 17 1.13687e-13 0.445386 2.18012 14.1663 -1.13687e-13 10.8 -1.13687e-13 1.68245 -2.62352 33.5471 5 17 0 -3.10665 3.688 -5.2546 6.45 2.84217e-14 -1.13687e-13 -0.566605 1.3001 -1.89713 6.45 0 0 19.7014 -17.984 64.3748 0 -32.4 -2 -64.9801 -37.8144 -27.0732 0 -25.65 2 -4.32295 44.0376 33.0217 -0.5 -1.5 2.65 -36.8625 -61.9693 -24.5911 -5.68434e-14 -3.8 3.7 0.303075 39.8848 -0.243875 0 -3 2.7 0.0806238 10.1302 -0.0674426 0 -1.9 1.6 -6.88029e-06 6.22029e-07 1.9113e-05 -1.13687e-13 -8.3 1.9 -12.7339 24.7934 3.50574 0 -4.5 1.13687e-13 -40.6716 -0.121019 0.226158 0 -3.4 0 -27.3509 -0.12494 0.0935619 -0.25 -2.2 0.4 -6.88029e-06 6.22029e-07 1.9113e-05 0 -8.3 1 -58.2036 22.5988 16.3446 0 -4.65 1.13687e-13 -15.308 0.117809 0.21482 0 -3.3 1.13687e-13 -9.43418 0.0774021 0.184749 -0.5 -2.15 -0.8 -6.88029e-06 6.22029e-07 1.9113e-05 0 -7.75 -0.2 -53.2071 27.6673 18.5239 5.68434e-14 -3.8 1.13687e-13 -42.9263 -0.224203 0.480619 0 -3.4 5.68434e-14 -29.4859 -0.282592 0.249869 -0.75 -1.75 -1.85 -6.88029e-06 6.22029e-07 1.9113e-05 -5.68434e-14 -7.15 -1 -47.4916 23.1099 13.9638 0 -3 -1.13687e-13 -46.2498 -0.165605 0.252242 -1.13687e-13 -2.35 -1.13687e-13 -24.1626 -0.135398 0.149773 -5 17 0 5.79524 8.73461 2.96438 -6.45 0 5.68434e-14 -0.916701 -1.07963 -1.08088 -6.45 2.84217e-14 0 -39.1871 20.6752 -47.1732 5.68434e-14 -32.4 -2 1.57895 -33.8269 -5.3532 0 -25.65 2 -16.1284 -25.7599 0.829334 0.5 -1.5 2.65 8.74896 38.6467 -104.521 0 -3.8 3.7 0.243672 46.8068 0.122626 0 -3 2.7 0.126051 57.4949 -0.093596 2.84217e-14 -1.9 1.6 -6.10669e-05 2.139e-05 -2.38431e-05 -2.84217e-14 -8.3 1.9 5.17395 -5.47207 0.224234 2.84217e-14 -4.5 2.84217e-14 4.28108 0.0138533 0.0108162 -2.84217e-14 -3.4 2.84217e-14 2.23598 0.0128046 0.0143933 0.25 -2.2 0.4 -6.10669e-05 2.139e-05 -2.38431e-05 -1.42109e-14 -8.3 1 4.28716 -0.858808 -0.0661873 2.84217e-14 -4.65 5.68434e-14 15.3242 0.0984425 0.0101709 0 -3.3 5.68434e-14 11.4558 0.0717821 -0.0101551 0.5 -2.15 -0.8 -6.10669e-05 2.139e-05 -2.38431e-05 0 -7.75 -0.2 2.86318 8.10589 -0.451065 0 -3.8 0 2.91306 0.0468918 0.0178546 0 -3.4 0 2.6847 0.0433145 0.0138422 0.75 -1.75 -1.85 -6.10669e-05 2.139e-05 -2.38431e-05 0 -7.15 -1 2.20606 12.6309 -0.568241 1.42109e-14 -3 -5.68434e-14 11.4717 0.0500148 0.0126325 0 -2.35 -5.68434e-14 9.85333 0.0381521 0.00888907 8 7.10543e-15 0 8.37399 -34.6035 -8.02089 0 -45 -1 5.20218 32.5898 10.9515 0 -41 -2 -19.0959 4.73149 -25.5876 0 -7.5 12.5 4.27326e-06 -6.7358e-06 -9.73511e-06 0 0 4 2.93442 6.74906 14.6273 -8 -7.10543e-15 0 -26.0399 -10.9526 -19.8691 0 -45 -1 -0.406732 23.6367 6.49739 0 -41 -2 14.138 -7.94948 -25.8985 0 -7.5 12.5 -8.84771e-07 -1.1287e-05 -4.02435e-05 0 0 4 -11.5379 -1.67873 30.3162 
-527.166 91.8327 867.145 -1.39298 -2.42025 -124.174 1.13687e-13 8 0 -3.95248 8.27378 1.80424 0 8 5.68434e-14 0.277302 1.64109 0.0480785 0 8 0 0.138834 0.820561 0.0250244 0 8 -5.68434e-14 0.13913 0.821471 0.026517 1.13687e-13 17 0 0.432537 2.15033 14.1695 1.13687e-13 10.8 0 1.70649 -2.66612 33.5532 5 17 5.68434e-14 -3.16479 3.62539 -5.11841 6.45 -2.84217e-14 5.68434e-14 -0.57587 1.3059 -1.89635 6.45 0 0 20.0887 -17.9129 64.6177 0 -32.4 -2 -64.976 -37.8302 -26.8584 0 -25.65 2 -4.24422 43.936 33.0703 -0.5 -1.5 2.65 -37.0146 -61.6713 -24.7519 5.68434e-14 -3.8 3.7 0.302486 39.7785 -0.243497 0 -3 2.7 0.0842512 10.5991 -0.0675437 0 -1.9 1.6 -6.88029e-06 6.22029e-07 1.9113e-05 0 -8.3 1.9 -10.5268 22.8506 2.71607 -5.68434e-14 -4.5 0 -38.8574 -0.124297 0.255307 -5.68434e-14 -3.4 1.13687e-13 -26.2457 -0.132429 0.110136 -0.25 -2.2 0.4 -6.88029e-06 6.22029e-07 1.9113e-05 0 -8.3 1 -53.6004 23.5468 15.3259 0 -4.65 1.13687e-13 -11.6338 0.10416 0.242164 0 -3.3 0 -6.72284 0.0708334 0.206343 -0.5 -2.15 -0.8 -6.88029e-06 6.22029e-07 1.9113e-05 -5.68434e-14 -7.75 -0.2 -50.1816 28.022 17.4506 0 -3.8 5.68434e-14 -35.7145 -0.265246 0.591602 0 -3.4 -5.68434e-14 -24.4056 -0.32684 0.323902 -0.75 -1.75 -1.85 -6.88029e-06 6.22029e-07 1.9113e-05 -1.13687e-13 -7.15 -1 -45.7229 23.294 13.3838 2.84217e-14 -3 0 -40.8321 -0.207866 0.304049 0 -2.35 1.13687e-13 -20.6389 -0.165409 0.185553 -5 17 -5.68434e-14 5.79723 8.75402 3.06545 -6.45 2.84217e-14 -5.68434e-14 -0.918154 -1.07976 -1.04469 -6.45 0 -5.68434e-14 -39.4547 20.9555 -46.8218 0 -32.4 -2 2.32092 -34.3876 -4.13668 -5.68434e-14 -25.65 2 -16.385 -25.6124 1.08729 0.5 -1.5 2.65 9.25511 39.0113 -106.242 0 -3.8 3.7 0.244081 46.6755 0.122327 -5.68434e-14 -3 2.7 0.126051 57.4949 -0.093596 -2.84217e-14 -1.9 1.6 -6.10669e-05 2.139e-05 -2.38431e-05 0 -8.3 1.9 5.14965 -5.32867 0.220019 -2.84217e-14 -4.5 -2.84217e-14 4.54093 0.00550301 0.0108162 0 -3.4 -8.52651e-14 2.48373 0.00467448 0.0143933 0.25 -2.2 0.4 -6.10669e-05 2.139e-05 -2.38431e-05 -1.42109e-14 -8.3 1 4.26537 -0.771142 -0.0674309 0 -4.65 0 16.6692 0.102438 0.00904655 5.68434e-14 -3.3 0 12.417 0.0739086 -0.0101551 0.5 -2.15 -0.8 -6.10669e-05 2.139e-05 -2.38431e-05 -2.84217e-14 -7.75 -0.2 2.83662 8.07942 -0.445952 0 -3.8 0 3.60744 0.0714099 0.0252657 -2.84217e-14 -3.4 -5.68434e-14 3.2954 0.0658765 0.0191867 0.75 -1.75 -1.85 -6.10669e-05 2.139e-05 -2.38431e-05 0 -7.15 -1 2.17537 12.5509 -0.558488 -1.42109e-14 -3 -5.68434e-14 12.1912 0.0848268 0.0192925 0 -2.35 5.68434e-14 10.3714 0.0644045 0.00718831 8 -7.10543e-15 -5.68434e-14 7.7931 -34.5793 -7.9495 0 -45 -1 5.28989 32.6364 10.9092 1.13687e-13 -41 -2 -18.8937 4.65276 -25.6101 0 -7.5 12.5 4.27326e-06 -6.7358e-06 -9.73511e-06 2.27374e-13 0 4 2.70635 6.6268 14.633 -8 0 0 -25.9894 -11.02 -19.9905 0 -45 -1 -0.398309 23.9249 6.46144 0 -41 -2 14.2426 -8.14345 -25.7781 0 -7.5 12.5 -8.84771e-07 -1.1287e-05 -4.02435e-05 0 0 4 -11.6336 -1.65971 30.1717 
-527.384 91.8789 867.355 -1.54039 -2.6521 -124.17 0 8 -5.68434e-14 -4.27677 8.2835 1.85307 0 8 0 0.260905 1.61751 0.0692672 0 8 5.68434e-14 0.130682 0.808757 0.0355364 0 8 -5.68434e-14 0.130561 0.808594 0.035229 0 17 1.13687e-13 0.416832 2.15026 14.1735 0 10.8 -2.84217e-14 1.7263 -2.69484 33.5628 5 17 5.68434e-14 -3.21946 3.59653 -4.9918 6.45 -2.84217e-14 -5.68434e-14 -0.586254 1.31214 -1.89739 6.45 5.68434e-14 0 20.5116 -17.8583 64.8818 0 -32.4 -2 -65.0024 -37.8008 -26.6461 1.13687e-13 -25.65 2 -4.19688 43.8309 33.24 -0.5 -1.5 2.65 -37.297 -61.3717 -24.9835 0 -3.8 3.7 0.302097 39.6218 -0.24369 -5.68434e-14 -3 2.7 0.0879685 11.2097 -0.0676825 -5.68434e-14 -1.9 1.6 -6.88029e-06 6.22029e-07 1.9113e-05 -5.68434e-14 -8.3 1.9 -8.55014 20.6591 2.04941 0 -4.5 0 -36.9891 -0.119786 0.254911 -2.84217e-14 -3.4 0 -25.1142 -0.128157 0.11247 -0.25 -2.2 0.4 -6.88029e-06 6.22029e-07 1.9113e-05 -1.13687e-13 -8.3 1 -49.2133 24.0434 14.1572 0 -4.65 1.13687e-13 -8.66469 0.0809943 0.218037 0 -3.3 -1.13687e-13 -4.45015 0.0565605 0.185406 -0.5 -2.15 -0.8 -6.88029e-06 6.22029e-07 1.9113e-05 5.68434e-14 -7.75 -0.2 -47.6852 28.052 16.4466 0 -3.8 5.68434e-14 -28.6277 -0.25815 0.592664 0 -3.4 0 -19.4555 -0.311985 0.338197 -0.75 -1.75 -1.85 -6.88029e-06 6.22029e-07 1.9113e-05 0 -7.15 -1 -44.7051 23.2147 12.9509 2.84217e-14 -3 -1.13687e-13 -35.1918 -0.208873 0.297602 0 -2.35 0 -16.8821 -0.163355 0.188194 -5 17 5.68434e-14 5.79713 8.79659 3.15145 -6.45 -2.84217e-14 5.68434e-14 -0.925183 -1.07986 -1.00014 -6.45 -2.84217e-14 5.68434e-14 -39.6871 21.2612 -46.4976 5.68434e-14 -32.4 -2 3.06114 -34.9753 -2.89987 -5.68434e-14 -25.65 2 -16.6468 -25.473 1.33311 0.5 -1.5 2.65 9.7957 39.4038 -107.921 1.7053e-13 -3.8 3.7 0.244567 46.5189 0.121975 1.13687e-13 -3 2.7 0.126051 57.4949 -0.093596 0 -1.9 1.6 -6.10669e-05 2.139e-05 -2.38431e-05 -2.84217e-14 -8.3 1.9 5.22834 -5.17434 0.218891 0 -4.5 2.84217e-14 4.74328 0.00209451 0.0108162 2.84217e-14 -3.4 2.84217e-14 2.67449 0.0012955 0.0143933 0.25 -2.2 0.4 -6.10669e-05 2.139e-05 -2.38431e-05 0 -8.3 1 4.33394 -0.674255 -0.0683606 2.84217e-14 -4.65 0 18.0643 0.0958848 0.00764234 0 -3.3 5.68434e-14 13.4044 0.0683542 -0.00940284 0.5 -2.15 -0.8 -6.10669e-05 2.139e-05 -2.38431e-05 -1.42109e-14 -7.75 -0.2 2.84635 8.07058 -0.444679 2.84217e-14 -3.8 0 4.4634 0.0775812 0.026438 5.68434e-14 -3.4 0 4.06343 0.0714203 0.0196385 0.75 -1.75 -1.85 -6.10669e-05 2.139e-05 -2.38431e-05 1.42109e-14 -7.15 -1 2.15046 12.4792 -0.551181 0 -3 0 13.1434 0.0963167 0.0218034 0 -2.35 5.68434e-14 11.0683 0.0729391 0.005733 8 -2.13163e-14 0 7.2484 -34.5707 -7.96281 1.13687e-13 -45 -1 5.37785 32.696 10.8615 0 -41 -2 -18.7154 4.56558 -25.6394 -1.13687e-13 -7.5 12.5 4.27326e-06 -6.7358e-06 -9.73511e-06 0 1.77636e-15 4 2.49661 6.51239 14.6423 -8 -7.10543e-15 0 -25.829 -11.094 -20.0513 0 -45 -1 -0.394758 24.2388 6.45773 0 -41 -2 14.3196 -8.38486 -25.669 0 -7.5 12.5 -8.84771e-07 -1.1287e-05 -4.02435e-05 0 0 4 -11.7798 -1.63531 30.0744 
